<mxfile host="app.diagrams.net" agent="Mozilla/5.0 (Windows NT 10.0; Win64; x64) AppleWebKit/537.36 (KHTML, like Gecko) Chrome/138.0.0.0 Safari/537.36" version="28.0.6">
  <diagram name="PÃ¡gina-1" id="PuR6PXavX1iiZgIphFz7">
    <mxGraphModel grid="1" page="1" gridSize="10" guides="1" tooltips="1" connect="1" arrows="1" fold="1" pageScale="1" pageWidth="827" pageHeight="1169" math="0" shadow="0">
      <root>
        <mxCell id="0" />
        <mxCell id="1" parent="0" />
        <mxCell id="wnuGWgDGQfipznTXfZxU-3" value="" style="shape=partialRectangle;whiteSpace=wrap;html=1;top=0;bottom=0;fillColor=none;rotation=90;" vertex="1" parent="1">
          <mxGeometry x="76.87" y="250" width="65" height="120" as="geometry" />
        </mxCell>
        <mxCell id="wnuGWgDGQfipznTXfZxU-6" value="" style="endArrow=none;html=1;rounded=0;exitX=1;exitY=0;exitDx=0;exitDy=0;" edge="1" parent="1" source="wnuGWgDGQfipznTXfZxU-3">
          <mxGeometry width="50" height="50" relative="1" as="geometry">
            <mxPoint x="213.12" y="316.25" as="sourcePoint" />
            <mxPoint x="203.12" y="306.25" as="targetPoint" />
          </mxGeometry>
        </mxCell>
        <mxCell id="wnuGWgDGQfipznTXfZxU-8" value="" style="endArrow=none;html=1;rounded=0;exitX=0;exitY=0;exitDx=0;exitDy=0;" edge="1" parent="1" source="wnuGWgDGQfipznTXfZxU-3">
          <mxGeometry width="50" height="50" relative="1" as="geometry">
            <mxPoint x="213.12" y="268.25" as="sourcePoint" />
            <mxPoint x="203.12" y="306.25" as="targetPoint" />
          </mxGeometry>
        </mxCell>
        <mxCell id="wnuGWgDGQfipznTXfZxU-11" value="" style="endArrow=none;html=1;rounded=0;entryX=1;entryY=1;entryDx=0;entryDy=0;" edge="1" parent="1" target="wnuGWgDGQfipznTXfZxU-3">
          <mxGeometry width="50" height="50" relative="1" as="geometry">
            <mxPoint x="16.870000000000005" y="310" as="sourcePoint" />
            <mxPoint x="40.120000000000005" y="338.25" as="targetPoint" />
          </mxGeometry>
        </mxCell>
        <mxCell id="wnuGWgDGQfipznTXfZxU-12" value="" style="endArrow=none;html=1;rounded=0;entryX=0;entryY=1;entryDx=0;entryDy=0;" edge="1" parent="1" target="wnuGWgDGQfipznTXfZxU-3">
          <mxGeometry width="50" height="50" relative="1" as="geometry">
            <mxPoint x="16.870000000000005" y="310" as="sourcePoint" />
            <mxPoint x="40.120000000000005" y="280" as="targetPoint" />
          </mxGeometry>
        </mxCell>
        <mxCell id="wnuGWgDGQfipznTXfZxU-13" value="" style="shape=partialRectangle;whiteSpace=wrap;html=1;top=0;bottom=0;fillColor=none;rotation=90;" vertex="1" parent="1">
          <mxGeometry x="286.87" y="250" width="65" height="120" as="geometry" />
        </mxCell>
        <mxCell id="wnuGWgDGQfipznTXfZxU-14" value="" style="endArrow=none;html=1;rounded=0;exitX=1;exitY=0;exitDx=0;exitDy=0;" edge="1" parent="1" source="wnuGWgDGQfipznTXfZxU-13">
          <mxGeometry width="50" height="50" relative="1" as="geometry">
            <mxPoint x="423.12" y="316.25" as="sourcePoint" />
            <mxPoint x="413.12" y="306.25" as="targetPoint" />
          </mxGeometry>
        </mxCell>
        <mxCell id="wnuGWgDGQfipznTXfZxU-15" value="" style="endArrow=none;html=1;rounded=0;exitX=0;exitY=0;exitDx=0;exitDy=0;" edge="1" parent="1" source="wnuGWgDGQfipznTXfZxU-13">
          <mxGeometry width="50" height="50" relative="1" as="geometry">
            <mxPoint x="423.12" y="268.25" as="sourcePoint" />
            <mxPoint x="413.12" y="306.25" as="targetPoint" />
          </mxGeometry>
        </mxCell>
        <mxCell id="wnuGWgDGQfipznTXfZxU-16" value="" style="endArrow=none;html=1;rounded=0;entryX=1;entryY=1;entryDx=0;entryDy=0;" edge="1" parent="1" target="wnuGWgDGQfipznTXfZxU-13">
          <mxGeometry width="50" height="50" relative="1" as="geometry">
            <mxPoint x="226.87" y="310" as="sourcePoint" />
            <mxPoint x="250.12" y="338.25" as="targetPoint" />
          </mxGeometry>
        </mxCell>
        <mxCell id="wnuGWgDGQfipznTXfZxU-17" value="" style="endArrow=none;html=1;rounded=0;entryX=0;entryY=1;entryDx=0;entryDy=0;" edge="1" parent="1" target="wnuGWgDGQfipznTXfZxU-13">
          <mxGeometry width="50" height="50" relative="1" as="geometry">
            <mxPoint x="226.87" y="310" as="sourcePoint" />
            <mxPoint x="250.12" y="280" as="targetPoint" />
          </mxGeometry>
        </mxCell>
        <mxCell id="wnuGWgDGQfipznTXfZxU-23" value="&lt;font style=&quot;vertical-align: inherit;&quot;&gt;&lt;font style=&quot;vertical-align: inherit;&quot;&gt;Idle&lt;/font&gt;&lt;/font&gt;" style="text;html=1;align=center;verticalAlign=middle;whiteSpace=wrap;rounded=0;" vertex="1" parent="1">
          <mxGeometry x="-53.129999999999995" y="295" width="60" height="30" as="geometry" />
        </mxCell>
        <mxCell id="wnuGWgDGQfipznTXfZxU-24" value="" style="shape=partialRectangle;whiteSpace=wrap;html=1;top=0;bottom=0;fillColor=none;rotation=90;" vertex="1" parent="1">
          <mxGeometry x="501.25" y="247.5" width="65" height="122.5" as="geometry" />
        </mxCell>
        <mxCell id="wnuGWgDGQfipznTXfZxU-25" value="" style="endArrow=none;html=1;rounded=0;exitX=1;exitY=0;exitDx=0;exitDy=0;" edge="1" parent="1" source="wnuGWgDGQfipznTXfZxU-24">
          <mxGeometry width="50" height="50" relative="1" as="geometry">
            <mxPoint x="636.25" y="315" as="sourcePoint" />
            <mxPoint x="626.25" y="305" as="targetPoint" />
          </mxGeometry>
        </mxCell>
        <mxCell id="wnuGWgDGQfipznTXfZxU-26" value="" style="endArrow=none;html=1;rounded=0;exitX=0;exitY=0;exitDx=0;exitDy=0;" edge="1" parent="1" source="wnuGWgDGQfipznTXfZxU-24">
          <mxGeometry width="50" height="50" relative="1" as="geometry">
            <mxPoint x="636.25" y="267" as="sourcePoint" />
            <mxPoint x="626.25" y="305" as="targetPoint" />
          </mxGeometry>
        </mxCell>
        <mxCell id="wnuGWgDGQfipznTXfZxU-27" value="" style="endArrow=none;html=1;rounded=0;entryX=1;entryY=1;entryDx=0;entryDy=0;" edge="1" parent="1" target="wnuGWgDGQfipznTXfZxU-24">
          <mxGeometry width="50" height="50" relative="1" as="geometry">
            <mxPoint x="440" y="308.75" as="sourcePoint" />
            <mxPoint x="463.25" y="337" as="targetPoint" />
          </mxGeometry>
        </mxCell>
        <mxCell id="wnuGWgDGQfipznTXfZxU-28" value="" style="endArrow=none;html=1;rounded=0;entryX=0;entryY=1;entryDx=0;entryDy=0;" edge="1" parent="1" target="wnuGWgDGQfipznTXfZxU-24">
          <mxGeometry width="50" height="50" relative="1" as="geometry">
            <mxPoint x="440" y="308.75" as="sourcePoint" />
            <mxPoint x="463.25" y="278.75" as="targetPoint" />
          </mxGeometry>
        </mxCell>
        <mxCell id="wnuGWgDGQfipznTXfZxU-58" value="" style="endArrow=classic;html=1;rounded=0;" edge="1" parent="1">
          <mxGeometry width="50" height="50" relative="1" as="geometry">
            <mxPoint x="196.87" y="309.40999999999997" as="sourcePoint" />
            <mxPoint x="226.87" y="309.82000000000005" as="targetPoint" />
          </mxGeometry>
        </mxCell>
        <mxCell id="wnuGWgDGQfipznTXfZxU-63" value="" style="endArrow=classic;html=1;rounded=0;" edge="1" parent="1">
          <mxGeometry width="50" height="50" relative="1" as="geometry">
            <mxPoint x="410" y="308.15999999999997" as="sourcePoint" />
            <mxPoint x="440" y="308.57000000000005" as="targetPoint" />
          </mxGeometry>
        </mxCell>
        <mxCell id="wnuGWgDGQfipznTXfZxU-64" value="" style="endArrow=classic;html=1;rounded=0;" edge="1" parent="1">
          <mxGeometry width="50" height="50" relative="1" as="geometry">
            <mxPoint x="-13.130000000000003" y="309.40999999999997" as="sourcePoint" />
            <mxPoint x="16.870000000000005" y="309.82000000000005" as="targetPoint" />
          </mxGeometry>
        </mxCell>
        <mxCell id="wnuGWgDGQfipznTXfZxU-65" value="&lt;font style=&quot;vertical-align: inherit;&quot;&gt;&lt;font style=&quot;vertical-align: inherit;&quot;&gt;Solicitudes&lt;/font&gt;&lt;/font&gt;" style="shape=umlFrame;whiteSpace=wrap;html=1;pointerEvents=0;" vertex="1" parent="1">
          <mxGeometry x="-200" y="190" width="1080" height="490" as="geometry" />
        </mxCell>
        <mxCell id="E65r-CA6iBgZKOVZjwjE-28" style="edgeStyle=none;curved=1;rounded=0;orthogonalLoop=1;jettySize=auto;html=1;entryX=0;entryY=0.5;entryDx=0;entryDy=0;fontSize=12;startSize=8;endSize=8;" edge="1" parent="1" target="E65r-CA6iBgZKOVZjwjE-2">
          <mxGeometry relative="1" as="geometry">
            <mxPoint x="109" y="340" as="sourcePoint" />
          </mxGeometry>
        </mxCell>
        <mxCell id="wnuGWgDGQfipznTXfZxU-66" value="&lt;span style=&quot;text-align: left;&quot;&gt;&lt;font style=&quot;vertical-align: inherit;&quot;&gt;&lt;font style=&quot;vertical-align: inherit;&quot;&gt;Hacer Solicitud&lt;/font&gt;&lt;/font&gt;&lt;/span&gt;" style="text;html=1;align=center;verticalAlign=middle;whiteSpace=wrap;rounded=0;" vertex="1" parent="1">
          <mxGeometry x="79.37" y="295" width="60" height="30" as="geometry" />
        </mxCell>
        <mxCell id="wnuGWgDGQfipznTXfZxU-67" value="&lt;span style=&quot;text-align: left;&quot;&gt;&lt;font style=&quot;vertical-align: inherit;&quot;&gt;&lt;font style=&quot;vertical-align: inherit;&quot;&gt;Esperando Respuesta&lt;/font&gt;&lt;/font&gt;&lt;/span&gt;" style="text;html=1;align=center;verticalAlign=middle;whiteSpace=wrap;rounded=0;" vertex="1" parent="1">
          <mxGeometry x="291.87" y="295" width="60" height="30" as="geometry" />
        </mxCell>
        <mxCell id="wnuGWgDGQfipznTXfZxU-69" value="&lt;span style=&quot;text-align: left;&quot;&gt;&lt;font style=&quot;vertical-align: inherit;&quot;&gt;&lt;font style=&quot;vertical-align: inherit;&quot;&gt;Recibir Respuesta&lt;/font&gt;&lt;/font&gt;&lt;/span&gt;" style="text;html=1;align=center;verticalAlign=middle;whiteSpace=wrap;rounded=0;" vertex="1" parent="1">
          <mxGeometry x="502.5" y="293.75" width="60" height="30" as="geometry" />
        </mxCell>
        <mxCell id="wnuGWgDGQfipznTXfZxU-83" value="{&lt;1d}" style="text;whiteSpace=wrap;" vertex="1" parent="1">
          <mxGeometry x="297.75" y="247.5" width="80" height="40" as="geometry" />
        </mxCell>
        <mxCell id="wnuGWgDGQfipznTXfZxU-84" value="&lt;span style=&quot;color: rgb(0, 0, 0); font-family: Helvetica; font-size: 12px; font-style: normal; font-variant-ligatures: normal; font-variant-caps: normal; font-weight: 400; letter-spacing: normal; orphans: 2; text-align: left; text-indent: 0px; text-transform: none; widows: 2; word-spacing: 0px; -webkit-text-stroke-width: 0px; white-space: normal; background-color: rgb(236, 236, 236); text-decoration-thickness: initial; text-decoration-style: initial; text-decoration-color: initial; float: none; display: inline !important;&quot;&gt;&lt;font style=&quot;vertical-align: inherit;&quot;&gt;&lt;font style=&quot;vertical-align: inherit;&quot;&gt;&lt;font style=&quot;vertical-align: inherit;&quot;&gt;&lt;font style=&quot;vertical-align: inherit;&quot;&gt;{&amp;gt;1d}&lt;/font&gt;&lt;/font&gt;&lt;/font&gt;&lt;/font&gt;&lt;/span&gt;" style="text;whiteSpace=wrap;html=1;" vertex="1" parent="1">
          <mxGeometry x="520" y="248.75" width="80" height="40" as="geometry" />
        </mxCell>
        <mxCell id="wnuGWgDGQfipznTXfZxU-85" value="&lt;font style=&quot;vertical-align: inherit;&quot;&gt;&lt;font style=&quot;vertical-align: inherit;&quot;&gt;Cliente&lt;/font&gt;&lt;/font&gt;" style="text;html=1;align=center;verticalAlign=middle;whiteSpace=wrap;rounded=0;" vertex="1" parent="1">
          <mxGeometry x="-140" y="293.75" width="60" height="30" as="geometry" />
        </mxCell>
        <mxCell id="E65r-CA6iBgZKOVZjwjE-1" value="{&lt;5min}" style="text;whiteSpace=wrap;" vertex="1" parent="1">
          <mxGeometry x="79.37" y="240" width="80" height="40" as="geometry" />
        </mxCell>
        <mxCell id="E65r-CA6iBgZKOVZjwjE-2" value="" style="shape=partialRectangle;whiteSpace=wrap;html=1;top=0;bottom=0;fillColor=none;rotation=90;" vertex="1" parent="1">
          <mxGeometry x="76.87" y="370" width="65" height="120" as="geometry" />
        </mxCell>
        <mxCell id="E65r-CA6iBgZKOVZjwjE-3" value="" style="endArrow=none;html=1;rounded=0;exitX=1;exitY=0;exitDx=0;exitDy=0;" edge="1" parent="1" source="E65r-CA6iBgZKOVZjwjE-2">
          <mxGeometry width="50" height="50" relative="1" as="geometry">
            <mxPoint x="213.12" y="436.25" as="sourcePoint" />
            <mxPoint x="203.12" y="426.25" as="targetPoint" />
          </mxGeometry>
        </mxCell>
        <mxCell id="E65r-CA6iBgZKOVZjwjE-4" value="" style="endArrow=none;html=1;rounded=0;exitX=0;exitY=0;exitDx=0;exitDy=0;" edge="1" parent="1" source="E65r-CA6iBgZKOVZjwjE-2">
          <mxGeometry width="50" height="50" relative="1" as="geometry">
            <mxPoint x="213.12" y="388.25" as="sourcePoint" />
            <mxPoint x="203.12" y="426.25" as="targetPoint" />
          </mxGeometry>
        </mxCell>
        <mxCell id="E65r-CA6iBgZKOVZjwjE-5" value="" style="endArrow=none;html=1;rounded=0;entryX=1;entryY=1;entryDx=0;entryDy=0;" edge="1" parent="1" target="E65r-CA6iBgZKOVZjwjE-2">
          <mxGeometry width="50" height="50" relative="1" as="geometry">
            <mxPoint x="16.870000000000005" y="430" as="sourcePoint" />
            <mxPoint x="40.120000000000005" y="458.25" as="targetPoint" />
          </mxGeometry>
        </mxCell>
        <mxCell id="E65r-CA6iBgZKOVZjwjE-6" value="" style="endArrow=none;html=1;rounded=0;entryX=0;entryY=1;entryDx=0;entryDy=0;" edge="1" parent="1" target="E65r-CA6iBgZKOVZjwjE-2">
          <mxGeometry width="50" height="50" relative="1" as="geometry">
            <mxPoint x="16.870000000000005" y="430" as="sourcePoint" />
            <mxPoint x="40.120000000000005" y="400" as="targetPoint" />
          </mxGeometry>
        </mxCell>
        <mxCell id="E65r-CA6iBgZKOVZjwjE-7" value="" style="shape=partialRectangle;whiteSpace=wrap;html=1;top=0;bottom=0;fillColor=none;rotation=90;" vertex="1" parent="1">
          <mxGeometry x="286.8699999999999" y="370" width="65" height="120" as="geometry" />
        </mxCell>
        <mxCell id="E65r-CA6iBgZKOVZjwjE-8" value="" style="endArrow=none;html=1;rounded=0;exitX=1;exitY=0;exitDx=0;exitDy=0;" edge="1" parent="1" source="E65r-CA6iBgZKOVZjwjE-7">
          <mxGeometry width="50" height="50" relative="1" as="geometry">
            <mxPoint x="423.1199999999999" y="436.25" as="sourcePoint" />
            <mxPoint x="413.1199999999999" y="426.25" as="targetPoint" />
          </mxGeometry>
        </mxCell>
        <mxCell id="E65r-CA6iBgZKOVZjwjE-9" value="" style="endArrow=none;html=1;rounded=0;exitX=0;exitY=0;exitDx=0;exitDy=0;" edge="1" parent="1" source="E65r-CA6iBgZKOVZjwjE-7">
          <mxGeometry width="50" height="50" relative="1" as="geometry">
            <mxPoint x="423.1199999999999" y="388.25" as="sourcePoint" />
            <mxPoint x="413.1199999999999" y="426.25" as="targetPoint" />
          </mxGeometry>
        </mxCell>
        <mxCell id="E65r-CA6iBgZKOVZjwjE-10" value="" style="endArrow=none;html=1;rounded=0;entryX=1;entryY=1;entryDx=0;entryDy=0;" edge="1" parent="1" target="E65r-CA6iBgZKOVZjwjE-7">
          <mxGeometry width="50" height="50" relative="1" as="geometry">
            <mxPoint x="226.8699999999999" y="430" as="sourcePoint" />
            <mxPoint x="250.1199999999999" y="458.25" as="targetPoint" />
          </mxGeometry>
        </mxCell>
        <mxCell id="E65r-CA6iBgZKOVZjwjE-11" value="" style="endArrow=none;html=1;rounded=0;entryX=0;entryY=1;entryDx=0;entryDy=0;" edge="1" parent="1" target="E65r-CA6iBgZKOVZjwjE-7">
          <mxGeometry width="50" height="50" relative="1" as="geometry">
            <mxPoint x="226.8699999999999" y="430" as="sourcePoint" />
            <mxPoint x="250.1199999999999" y="400" as="targetPoint" />
          </mxGeometry>
        </mxCell>
        <mxCell id="E65r-CA6iBgZKOVZjwjE-12" value="&lt;font style=&quot;vertical-align: inherit;&quot;&gt;&lt;font style=&quot;vertical-align: inherit;&quot;&gt;Idle&lt;/font&gt;&lt;/font&gt;" style="text;html=1;align=center;verticalAlign=middle;whiteSpace=wrap;rounded=0;" vertex="1" parent="1">
          <mxGeometry x="-53.129999999999995" y="415" width="60" height="30" as="geometry" />
        </mxCell>
        <mxCell id="E65r-CA6iBgZKOVZjwjE-56" style="edgeStyle=none;curved=1;rounded=0;orthogonalLoop=1;jettySize=auto;html=1;entryX=0;entryY=0.5;entryDx=0;entryDy=0;fontSize=12;startSize=8;endSize=8;" edge="1" parent="1" source="E65r-CA6iBgZKOVZjwjE-13" target="E65r-CA6iBgZKOVZjwjE-34">
          <mxGeometry relative="1" as="geometry" />
        </mxCell>
        <mxCell id="E65r-CA6iBgZKOVZjwjE-13" value="" style="shape=partialRectangle;whiteSpace=wrap;html=1;top=0;bottom=0;fillColor=none;rotation=90;" vertex="1" parent="1">
          <mxGeometry x="501.25" y="367.5" width="65" height="122.5" as="geometry" />
        </mxCell>
        <mxCell id="E65r-CA6iBgZKOVZjwjE-14" value="" style="endArrow=none;html=1;rounded=0;exitX=1;exitY=0;exitDx=0;exitDy=0;" edge="1" parent="1" source="E65r-CA6iBgZKOVZjwjE-13">
          <mxGeometry width="50" height="50" relative="1" as="geometry">
            <mxPoint x="636.25" y="435" as="sourcePoint" />
            <mxPoint x="626.25" y="425" as="targetPoint" />
          </mxGeometry>
        </mxCell>
        <mxCell id="E65r-CA6iBgZKOVZjwjE-15" value="" style="endArrow=none;html=1;rounded=0;exitX=0;exitY=0;exitDx=0;exitDy=0;" edge="1" parent="1" source="E65r-CA6iBgZKOVZjwjE-13">
          <mxGeometry width="50" height="50" relative="1" as="geometry">
            <mxPoint x="636.25" y="387" as="sourcePoint" />
            <mxPoint x="626.25" y="425" as="targetPoint" />
          </mxGeometry>
        </mxCell>
        <mxCell id="E65r-CA6iBgZKOVZjwjE-16" value="" style="endArrow=none;html=1;rounded=0;entryX=1;entryY=1;entryDx=0;entryDy=0;" edge="1" parent="1" target="E65r-CA6iBgZKOVZjwjE-13">
          <mxGeometry width="50" height="50" relative="1" as="geometry">
            <mxPoint x="440" y="428.75" as="sourcePoint" />
            <mxPoint x="463.25" y="457" as="targetPoint" />
          </mxGeometry>
        </mxCell>
        <mxCell id="E65r-CA6iBgZKOVZjwjE-17" value="" style="endArrow=none;html=1;rounded=0;entryX=0;entryY=1;entryDx=0;entryDy=0;" edge="1" parent="1" target="E65r-CA6iBgZKOVZjwjE-13">
          <mxGeometry width="50" height="50" relative="1" as="geometry">
            <mxPoint x="440" y="428.75" as="sourcePoint" />
            <mxPoint x="463.25" y="398.75" as="targetPoint" />
          </mxGeometry>
        </mxCell>
        <mxCell id="E65r-CA6iBgZKOVZjwjE-18" value="" style="endArrow=classic;html=1;rounded=0;" edge="1" parent="1">
          <mxGeometry width="50" height="50" relative="1" as="geometry">
            <mxPoint x="196.87" y="429.40999999999997" as="sourcePoint" />
            <mxPoint x="226.8699999999999" y="429.82000000000005" as="targetPoint" />
          </mxGeometry>
        </mxCell>
        <mxCell id="E65r-CA6iBgZKOVZjwjE-19" value="" style="endArrow=classic;html=1;rounded=0;" edge="1" parent="1">
          <mxGeometry width="50" height="50" relative="1" as="geometry">
            <mxPoint x="410" y="428.15999999999997" as="sourcePoint" />
            <mxPoint x="440" y="428.57000000000005" as="targetPoint" />
          </mxGeometry>
        </mxCell>
        <mxCell id="E65r-CA6iBgZKOVZjwjE-20" value="" style="endArrow=classic;html=1;rounded=0;" edge="1" parent="1">
          <mxGeometry width="50" height="50" relative="1" as="geometry">
            <mxPoint x="-13.129999999999995" y="429.40999999999997" as="sourcePoint" />
            <mxPoint x="16.870000000000005" y="429.82000000000005" as="targetPoint" />
          </mxGeometry>
        </mxCell>
        <mxCell id="E65r-CA6iBgZKOVZjwjE-21" value="&lt;span style=&quot;text-align: left;&quot;&gt;&lt;font style=&quot;vertical-align: inherit;&quot;&gt;&lt;font style=&quot;vertical-align: inherit;&quot;&gt;Recibir Solicitud&lt;/font&gt;&lt;/font&gt;&lt;/span&gt;" style="text;html=1;align=center;verticalAlign=middle;whiteSpace=wrap;rounded=0;" vertex="1" parent="1">
          <mxGeometry x="79.37" y="415" width="60" height="30" as="geometry" />
        </mxCell>
        <mxCell id="E65r-CA6iBgZKOVZjwjE-22" value="&lt;span style=&quot;text-align: left;&quot;&gt;&lt;font style=&quot;vertical-align: inherit;&quot;&gt;&lt;font style=&quot;vertical-align: inherit;&quot;&gt;Revisar Solicitud&lt;/font&gt;&lt;/font&gt;&lt;/span&gt;" style="text;html=1;align=center;verticalAlign=middle;whiteSpace=wrap;rounded=0;" vertex="1" parent="1">
          <mxGeometry x="291.8699999999999" y="415" width="60" height="30" as="geometry" />
        </mxCell>
        <mxCell id="E65r-CA6iBgZKOVZjwjE-23" value="&lt;span style=&quot;text-align: left;&quot;&gt;&lt;font style=&quot;vertical-align: inherit;&quot;&gt;&lt;font style=&quot;vertical-align: inherit;&quot;&gt;Aceptar o Rechazar&lt;/font&gt;&lt;/font&gt;&lt;/span&gt;" style="text;html=1;align=center;verticalAlign=middle;whiteSpace=wrap;rounded=0;" vertex="1" parent="1">
          <mxGeometry x="502.5" y="413.75" width="60" height="30" as="geometry" />
        </mxCell>
        <mxCell id="E65r-CA6iBgZKOVZjwjE-24" value="{&gt;1d}" style="text;whiteSpace=wrap;" vertex="1" parent="1">
          <mxGeometry x="297.75" y="367.5" width="80" height="40" as="geometry" />
        </mxCell>
        <mxCell id="E65r-CA6iBgZKOVZjwjE-25" value="&lt;span style=&quot;color: rgb(0, 0, 0); font-family: Helvetica; font-size: 12px; font-style: normal; font-variant-ligatures: normal; font-variant-caps: normal; font-weight: 400; letter-spacing: normal; orphans: 2; text-align: left; text-indent: 0px; text-transform: none; widows: 2; word-spacing: 0px; -webkit-text-stroke-width: 0px; white-space: normal; background-color: rgb(236, 236, 236); text-decoration-thickness: initial; text-decoration-style: initial; text-decoration-color: initial; float: none; display: inline !important;&quot;&gt;&lt;font style=&quot;vertical-align: inherit;&quot;&gt;&lt;font style=&quot;vertical-align: inherit;&quot;&gt;&lt;font style=&quot;vertical-align: inherit;&quot;&gt;&lt;font style=&quot;vertical-align: inherit;&quot;&gt;{&amp;gt;1d}&lt;/font&gt;&lt;/font&gt;&lt;/font&gt;&lt;/font&gt;&lt;/span&gt;" style="text;whiteSpace=wrap;html=1;" vertex="1" parent="1">
          <mxGeometry x="520" y="368.75" width="80" height="40" as="geometry" />
        </mxCell>
        <mxCell id="E65r-CA6iBgZKOVZjwjE-26" value="&lt;font style=&quot;vertical-align: inherit;&quot;&gt;&lt;font style=&quot;vertical-align: inherit;&quot;&gt;Administrador&lt;/font&gt;&lt;/font&gt;" style="text;html=1;align=center;verticalAlign=middle;whiteSpace=wrap;rounded=0;" vertex="1" parent="1">
          <mxGeometry x="-140" y="413.75" width="60" height="30" as="geometry" />
        </mxCell>
        <mxCell id="E65r-CA6iBgZKOVZjwjE-27" value="{&lt;5min}" style="text;whiteSpace=wrap;" vertex="1" parent="1">
          <mxGeometry x="59.370000000000005" y="370" width="80" height="40" as="geometry" />
        </mxCell>
        <mxCell id="E65r-CA6iBgZKOVZjwjE-55" style="edgeStyle=orthogonalEdgeStyle;rounded=0;orthogonalLoop=1;jettySize=auto;html=1;entryX=0;entryY=0.5;entryDx=0;entryDy=0;fontSize=12;startSize=8;endSize=8;" edge="1" parent="1" source="E65r-CA6iBgZKOVZjwjE-29" target="E65r-CA6iBgZKOVZjwjE-26">
          <mxGeometry relative="1" as="geometry">
            <Array as="points">
              <mxPoint x="99" y="610" />
              <mxPoint x="-160" y="610" />
              <mxPoint x="-160" y="429" />
            </Array>
          </mxGeometry>
        </mxCell>
        <mxCell id="E65r-CA6iBgZKOVZjwjE-29" value="" style="shape=partialRectangle;whiteSpace=wrap;html=1;top=0;bottom=0;fillColor=none;rotation=90;" vertex="1" parent="1">
          <mxGeometry x="66.87" y="480" width="65" height="120" as="geometry" />
        </mxCell>
        <mxCell id="E65r-CA6iBgZKOVZjwjE-30" value="" style="endArrow=none;html=1;rounded=0;exitX=1;exitY=0;exitDx=0;exitDy=0;" edge="1" parent="1" source="E65r-CA6iBgZKOVZjwjE-29">
          <mxGeometry width="50" height="50" relative="1" as="geometry">
            <mxPoint x="203.12" y="546.25" as="sourcePoint" />
            <mxPoint x="193.12" y="536.25" as="targetPoint" />
          </mxGeometry>
        </mxCell>
        <mxCell id="E65r-CA6iBgZKOVZjwjE-31" value="" style="endArrow=none;html=1;rounded=0;exitX=0;exitY=0;exitDx=0;exitDy=0;" edge="1" parent="1" source="E65r-CA6iBgZKOVZjwjE-29">
          <mxGeometry width="50" height="50" relative="1" as="geometry">
            <mxPoint x="203.12" y="498.25" as="sourcePoint" />
            <mxPoint x="193.12" y="536.25" as="targetPoint" />
          </mxGeometry>
        </mxCell>
        <mxCell id="E65r-CA6iBgZKOVZjwjE-32" value="" style="endArrow=none;html=1;rounded=0;entryX=1;entryY=1;entryDx=0;entryDy=0;" edge="1" parent="1" target="E65r-CA6iBgZKOVZjwjE-29">
          <mxGeometry width="50" height="50" relative="1" as="geometry">
            <mxPoint x="6.8700000000000045" y="540" as="sourcePoint" />
            <mxPoint x="30.120000000000005" y="568.25" as="targetPoint" />
          </mxGeometry>
        </mxCell>
        <mxCell id="E65r-CA6iBgZKOVZjwjE-33" value="" style="endArrow=none;html=1;rounded=0;entryX=0;entryY=1;entryDx=0;entryDy=0;" edge="1" parent="1" target="E65r-CA6iBgZKOVZjwjE-29">
          <mxGeometry width="50" height="50" relative="1" as="geometry">
            <mxPoint x="6.8700000000000045" y="540" as="sourcePoint" />
            <mxPoint x="30.120000000000005" y="510" as="targetPoint" />
          </mxGeometry>
        </mxCell>
        <mxCell id="E65r-CA6iBgZKOVZjwjE-34" value="" style="shape=partialRectangle;whiteSpace=wrap;html=1;top=0;bottom=0;fillColor=none;rotation=90;" vertex="1" parent="1">
          <mxGeometry x="276.87" y="480" width="65" height="120" as="geometry" />
        </mxCell>
        <mxCell id="E65r-CA6iBgZKOVZjwjE-35" value="" style="endArrow=none;html=1;rounded=0;exitX=1;exitY=0;exitDx=0;exitDy=0;" edge="1" parent="1" source="E65r-CA6iBgZKOVZjwjE-34">
          <mxGeometry width="50" height="50" relative="1" as="geometry">
            <mxPoint x="413.12" y="546.25" as="sourcePoint" />
            <mxPoint x="403.12" y="536.25" as="targetPoint" />
          </mxGeometry>
        </mxCell>
        <mxCell id="E65r-CA6iBgZKOVZjwjE-36" value="" style="endArrow=none;html=1;rounded=0;exitX=0;exitY=0;exitDx=0;exitDy=0;" edge="1" parent="1" source="E65r-CA6iBgZKOVZjwjE-34">
          <mxGeometry width="50" height="50" relative="1" as="geometry">
            <mxPoint x="413.12" y="498.25" as="sourcePoint" />
            <mxPoint x="403.12" y="536.25" as="targetPoint" />
          </mxGeometry>
        </mxCell>
        <mxCell id="E65r-CA6iBgZKOVZjwjE-37" value="" style="endArrow=none;html=1;rounded=0;entryX=1;entryY=1;entryDx=0;entryDy=0;" edge="1" parent="1" target="E65r-CA6iBgZKOVZjwjE-34">
          <mxGeometry width="50" height="50" relative="1" as="geometry">
            <mxPoint x="216.87" y="540" as="sourcePoint" />
            <mxPoint x="240.12" y="568.25" as="targetPoint" />
          </mxGeometry>
        </mxCell>
        <mxCell id="E65r-CA6iBgZKOVZjwjE-38" value="" style="endArrow=none;html=1;rounded=0;entryX=0;entryY=1;entryDx=0;entryDy=0;" edge="1" parent="1" target="E65r-CA6iBgZKOVZjwjE-34">
          <mxGeometry width="50" height="50" relative="1" as="geometry">
            <mxPoint x="216.87" y="540" as="sourcePoint" />
            <mxPoint x="240.12" y="510" as="targetPoint" />
          </mxGeometry>
        </mxCell>
        <mxCell id="E65r-CA6iBgZKOVZjwjE-39" value="&lt;font style=&quot;vertical-align: inherit;&quot;&gt;&lt;font style=&quot;vertical-align: inherit;&quot;&gt;Idle&lt;/font&gt;&lt;/font&gt;" style="text;html=1;align=center;verticalAlign=middle;whiteSpace=wrap;rounded=0;" vertex="1" parent="1">
          <mxGeometry x="-63.129999999999995" y="525" width="60" height="30" as="geometry" />
        </mxCell>
        <mxCell id="E65r-CA6iBgZKOVZjwjE-59" style="edgeStyle=orthogonalEdgeStyle;rounded=0;orthogonalLoop=1;jettySize=auto;html=1;entryX=0;entryY=0.5;entryDx=0;entryDy=0;fontSize=12;startSize=8;endSize=8;" edge="1" parent="1" source="E65r-CA6iBgZKOVZjwjE-40" target="wnuGWgDGQfipznTXfZxU-85">
          <mxGeometry relative="1" as="geometry">
            <Array as="points">
              <mxPoint x="524" y="650" />
              <mxPoint x="-180" y="650" />
              <mxPoint x="-180" y="309" />
            </Array>
          </mxGeometry>
        </mxCell>
        <mxCell id="E65r-CA6iBgZKOVZjwjE-40" value="" style="shape=partialRectangle;whiteSpace=wrap;html=1;top=0;bottom=0;fillColor=none;rotation=90;" vertex="1" parent="1">
          <mxGeometry x="491.25" y="477.5" width="65" height="122.5" as="geometry" />
        </mxCell>
        <mxCell id="E65r-CA6iBgZKOVZjwjE-41" value="" style="endArrow=none;html=1;rounded=0;exitX=1;exitY=0;exitDx=0;exitDy=0;" edge="1" parent="1" source="E65r-CA6iBgZKOVZjwjE-40">
          <mxGeometry width="50" height="50" relative="1" as="geometry">
            <mxPoint x="626.25" y="545" as="sourcePoint" />
            <mxPoint x="616.25" y="535" as="targetPoint" />
          </mxGeometry>
        </mxCell>
        <mxCell id="E65r-CA6iBgZKOVZjwjE-42" value="" style="endArrow=none;html=1;rounded=0;exitX=0;exitY=0;exitDx=0;exitDy=0;" edge="1" parent="1" source="E65r-CA6iBgZKOVZjwjE-40">
          <mxGeometry width="50" height="50" relative="1" as="geometry">
            <mxPoint x="626.25" y="497" as="sourcePoint" />
            <mxPoint x="616.25" y="535" as="targetPoint" />
          </mxGeometry>
        </mxCell>
        <mxCell id="E65r-CA6iBgZKOVZjwjE-43" value="" style="endArrow=none;html=1;rounded=0;entryX=1;entryY=1;entryDx=0;entryDy=0;" edge="1" parent="1" target="E65r-CA6iBgZKOVZjwjE-40">
          <mxGeometry width="50" height="50" relative="1" as="geometry">
            <mxPoint x="430" y="538.75" as="sourcePoint" />
            <mxPoint x="453.25" y="567" as="targetPoint" />
          </mxGeometry>
        </mxCell>
        <mxCell id="E65r-CA6iBgZKOVZjwjE-44" value="" style="endArrow=none;html=1;rounded=0;entryX=0;entryY=1;entryDx=0;entryDy=0;" edge="1" parent="1" target="E65r-CA6iBgZKOVZjwjE-40">
          <mxGeometry width="50" height="50" relative="1" as="geometry">
            <mxPoint x="430" y="538.75" as="sourcePoint" />
            <mxPoint x="453.25" y="508.75" as="targetPoint" />
          </mxGeometry>
        </mxCell>
        <mxCell id="E65r-CA6iBgZKOVZjwjE-45" value="" style="endArrow=classic;html=1;rounded=0;" edge="1" parent="1">
          <mxGeometry width="50" height="50" relative="1" as="geometry">
            <mxPoint x="186.87" y="539.41" as="sourcePoint" />
            <mxPoint x="216.87" y="539.82" as="targetPoint" />
          </mxGeometry>
        </mxCell>
        <mxCell id="E65r-CA6iBgZKOVZjwjE-46" value="" style="endArrow=classic;html=1;rounded=0;" edge="1" parent="1">
          <mxGeometry width="50" height="50" relative="1" as="geometry">
            <mxPoint x="400" y="538.16" as="sourcePoint" />
            <mxPoint x="430" y="538.57" as="targetPoint" />
          </mxGeometry>
        </mxCell>
        <mxCell id="E65r-CA6iBgZKOVZjwjE-47" value="" style="endArrow=classic;html=1;rounded=0;" edge="1" parent="1">
          <mxGeometry width="50" height="50" relative="1" as="geometry">
            <mxPoint x="-23.130000000000003" y="539.41" as="sourcePoint" />
            <mxPoint x="6.8700000000000045" y="539.82" as="targetPoint" />
          </mxGeometry>
        </mxCell>
        <mxCell id="E65r-CA6iBgZKOVZjwjE-48" value="&lt;span style=&quot;text-align: left;&quot;&gt;&lt;font style=&quot;vertical-align: inherit;&quot;&gt;&lt;font style=&quot;vertical-align: inherit;&quot;&gt;Notificar Solicitud&lt;/font&gt;&lt;/font&gt;&lt;/span&gt;" style="text;html=1;align=center;verticalAlign=middle;whiteSpace=wrap;rounded=0;" vertex="1" parent="1">
          <mxGeometry x="69.37" y="525" width="60" height="30" as="geometry" />
        </mxCell>
        <mxCell id="E65r-CA6iBgZKOVZjwjE-49" value="&lt;span style=&quot;text-align: left;&quot;&gt;&lt;font style=&quot;vertical-align: inherit;&quot;&gt;&lt;font style=&quot;vertical-align: inherit;&quot;&gt;Actualizar Estado&lt;/font&gt;&lt;/font&gt;&lt;/span&gt;" style="text;html=1;align=center;verticalAlign=middle;whiteSpace=wrap;rounded=0;" vertex="1" parent="1">
          <mxGeometry x="281.87" y="525" width="60" height="30" as="geometry" />
        </mxCell>
        <mxCell id="E65r-CA6iBgZKOVZjwjE-50" value="&lt;span style=&quot;text-align: left;&quot;&gt;&lt;font style=&quot;vertical-align: inherit;&quot;&gt;&lt;font style=&quot;vertical-align: inherit;&quot;&gt;Notidicar Usuario&lt;/font&gt;&lt;/font&gt;&lt;/span&gt;" style="text;html=1;align=center;verticalAlign=middle;whiteSpace=wrap;rounded=0;" vertex="1" parent="1">
          <mxGeometry x="492.5" y="523.75" width="60" height="30" as="geometry" />
        </mxCell>
        <mxCell id="E65r-CA6iBgZKOVZjwjE-51" value="{&lt;1min}" style="text;whiteSpace=wrap;" vertex="1" parent="1">
          <mxGeometry x="287.75" y="477.5" width="80" height="40" as="geometry" />
        </mxCell>
        <mxCell id="E65r-CA6iBgZKOVZjwjE-52" value="&lt;span style=&quot;color: rgb(0, 0, 0); font-family: Helvetica; font-size: 12px; font-style: normal; font-variant-ligatures: normal; font-variant-caps: normal; font-weight: 400; letter-spacing: normal; orphans: 2; text-align: left; text-indent: 0px; text-transform: none; widows: 2; word-spacing: 0px; -webkit-text-stroke-width: 0px; white-space: normal; background-color: rgb(236, 236, 236); text-decoration-thickness: initial; text-decoration-style: initial; text-decoration-color: initial; float: none; display: inline !important;&quot;&gt;&lt;font style=&quot;vertical-align: inherit;&quot;&gt;&lt;font style=&quot;vertical-align: inherit;&quot;&gt;&lt;font style=&quot;vertical-align: inherit;&quot;&gt;&lt;font style=&quot;vertical-align: inherit;&quot;&gt;{&amp;lt;2min}&lt;/font&gt;&lt;/font&gt;&lt;/font&gt;&lt;/font&gt;&lt;/span&gt;" style="text;whiteSpace=wrap;html=1;" vertex="1" parent="1">
          <mxGeometry x="510" y="478.75" width="80" height="40" as="geometry" />
        </mxCell>
        <mxCell id="E65r-CA6iBgZKOVZjwjE-53" value="&lt;font style=&quot;vertical-align: inherit;&quot;&gt;&lt;font style=&quot;vertical-align: inherit;&quot;&gt;Sistema&lt;/font&gt;&lt;/font&gt;" style="text;html=1;align=center;verticalAlign=middle;whiteSpace=wrap;rounded=0;" vertex="1" parent="1">
          <mxGeometry x="-150" y="523.75" width="60" height="30" as="geometry" />
        </mxCell>
        <mxCell id="E65r-CA6iBgZKOVZjwjE-54" value="{&lt;5min}" style="text;whiteSpace=wrap;" vertex="1" parent="1">
          <mxGeometry x="51.870000000000005" y="480" width="80" height="40" as="geometry" />
        </mxCell>
      </root>
    </mxGraphModel>
  </diagram>
</mxfile>
